<svg id="visual" viewBox="0 0 900 600" width="900" height="600" xmlns="http://www.w3.org/2000/svg" xmlns:xlink="http://www.w3.org/1999/xlink" version="1.1"><rect x="0" y="0" width="900" height="600" fill="#ecf0f1"></rect><defs><linearGradient id="grad1_0" x1="33.3%" y1="0%" x2="100%" y2="100%"><stop offset="20%" stop-color="#ecf0f1" stop-opacity="1"></stop><stop offset="80%" stop-color="#ecf0f1" stop-opacity="1"></stop></linearGradient></defs><defs><linearGradient id="grad2_0" x1="0%" y1="0%" x2="66.7%" y2="100%"><stop offset="20%" stop-color="#ecf0f1" stop-opacity="1"></stop><stop offset="80%" stop-color="#ecf0f1" stop-opacity="1"></stop></linearGradient></defs><g transform="translate(900, 0)"><path d="M0 243.4C-24.6 224.7 -49.3 206 -81.9 197.7C-114.5 189.5 -155.1 191.7 -172.1 172.1C-189.1 152.5 -182.4 111.1 -190.3 78.8C-198.3 46.5 -220.8 23.3 -243.4 0L0 0Z" fill="#457b9d"></path></g><g transform="translate(0, 600)"><path d="M0 -243.4C26 -219.6 52.1 -195.7 74.2 -179.2C96.4 -162.7 114.6 -153.5 142.1 -142.1C169.6 -130.7 206.4 -117.2 224.8 -93.1C243.3 -69.1 243.3 -34.5 243.4 0L0 0Z" fill="#457b9d"></path></g></svg>